<?xml version="1.0" encoding="utf-8"?>
<!-- Generator: Adobe Illustrator 25.2.3, SVG Export Plug-In . SVG Version: 6.00 Build 0)  -->
<svg version="1.1" id="Layer_1" xmlns="http://www.w3.org/2000/svg" xmlns:xlink="http://www.w3.org/1999/xlink" x="0px" y="0px"
	 viewBox="0 0 1080 1080" style="enable-background:new 0 0 1080 1080;" xml:space="preserve">
<style type="text/css">
	.st0{fill:#FBDD19;stroke:#000000;stroke-width:5;stroke-miterlimit:10;}
	.st1{fill:#FBDD19;stroke:#000000;stroke-width:5;}
	.st2{opacity:0.38;fill:none;stroke:#000000;stroke-width:5;enable-background:new    ;}
	.st3{fill:#FBDD19;stroke:#100D0E;stroke-width:4;}
	.st4{fill:none;stroke:#000000;stroke-width:5;}
	.st5{fill:none;stroke:#000000;stroke-width:4;}
	.st6{fill:#0E0C0E;}
	.st7{fill:#E5A524;}
	.st8{fill:#100D0E;}
	.st9{fill:#EF3B26;stroke:#000000;stroke-width:5;}
	.st10{fill:#FFFEFA;}
	.st11{fill:#FEFEF9;}
	.st12{fill:#8C2B1C;stroke:#000000;}
	.st13{fill:#E2A525;}
	.st14{fill:#FBDD19;}
	.st15{fill:#231F20;}
	.st16{fill:#EF5590;}
	.st17{fill:#AE1E45;}
	.st18{fill:#791214;}
	.st19{fill:#120F0E;}
</style>
<path class="st0" d="M478.49,299.44c-4,3.96-8,7.91-12,11.87c0,0-176.78-95.68-209.02-235c0,0,137.36,8.98,255,189.54
	c-3.82,3.78-11.45,11.33-11.45,11.33"/>
<path class="st0" d="M758.46,281.94c0,0,95.04-127.2,266.82-136.63c0,0-25.39,115.42-225.49,189.04L758.46,281.94z"/>
<path class="st1" d="M439.68,430.6c-0.66,0.89-1.44,2.06-2.31,3.55c-2.49,4.27-5.71,11.24-8.91,22.23
	c-3.26,11.21-3.49,21.69-2.91,29.35c0.29,3.84,0.78,6.98,1.21,9.18c0.21,1.1,0.41,1.96,0.55,2.56c0.02,0.09,0.04,0.18,0.06,0.26
	c4.51,38.09,4.59,97.25-32.67,136.69c-1.89,2-3.89,3.96-6,5.88c-7.12,6.84-14.25,13.68-21.37,20.52l-2.43,2.33l2.94,1.65l50.2,28.2
	l-17.85,69.97l-18.45,18.27l-2.29,2.27l2.77,1.65l12.33,7.37l-9.37,32.83l-52.67-34.58l48.87-62.92l2.04-2.63l-3.09-1.23
	l-101.96-40.49c6.47-10.86,23.95-36.58,40.51-60.56c4.11-5.95,13.52-19.54,24.03-34.57c3.24-4.64,5.92-8.45,7.7-10.99
	c2.54-3.61,3.81-5.42,3.81-5.42c0,0-0.37,0.53-1.11,1.58l0.14-0.2l0.04-0.05l0.01-0.01l0,0c0,0,0,0-2.04-1.44l2.05,1.44l0.92-1.31
	c-2.37-4.08-4.74-8.15-7.11-12.23l-0.2-0.35l-0.31-0.27c-0.35-0.31-0.77-0.54-1.07-0.69c-0.34-0.17-0.74-0.35-1.17-0.53
	c-0.87-0.36-2-0.77-3.35-1.22c-2.71-0.91-6.45-2.05-11.03-3.39c-9.18-2.66-21.89-6.12-36.9-10.08
	c-30.04-7.92-69.41-17.89-108.55-27.66c-39.14-9.77-78.05-19.34-107.17-26.47c-14.56-3.57-26.68-6.52-35.16-8.58
	c-4.24-1.03-7.57-1.84-9.84-2.39c-0.28-0.07-0.55-0.13-0.79-0.19c18.94-53.32,50.22-102.67,77-138.91
	c13.6-18.4,26.02-33.4,35.03-43.79c4.51-5.2,8.16-9.24,10.69-11.98c1.22-1.33,2.18-2.35,2.84-3.05c25.59,8.35,66,27.71,100.43,45.23
	c17.52,8.91,33.43,17.32,44.96,23.49c5.77,3.09,10.44,5.62,13.67,7.38c1.61,0.88,2.87,1.57,3.72,2.03c0.24,0.13,0.45,0.25,0.63,0.34
	c0.13,0.07,0.25,0.14,0.34,0.19l0.25,0.14l0.06,0.03c0,0,0.01,0,0.01,0.01l0.01,0l0,0h0c-0.01,0-1.68-0.92-5.01-2.74
	C357.47,381.04,398.58,405.82,439.68,430.6z"/>
<path class="st2" d="M389.12,629.99c-14-17.5-41.2-54.9-38-64.5c-13-24-37.4-74.4-31-84c-3-2.67-8.7-8.9-7.5-12.5
	c1.5-4.5,10-5.5,11.5-1c-2.33-4.17-6.7-13.1-5.5-15.5c3.17-0.83,10.3-2.4,13.5-2c-0.67-4.17-1.6-12.7,0-13.5c5,0,15.4,1.2,17,6
	c0.5-4.83,1.9-14.3,3.5-13.5c5.67,2,17.4,7.1,19,11.5c1.5-4.83,4.9-14.1,6.5-12.5c4.17,5.33,12.7,17.6,13.5,24
	c2.5,4.33,9.1,14,15.5,18c6.5,4.5,19.9,14.6,21.5,19L389.12,629.99z"/>
<g>
	<path class="st3" d="M514.21,264.82c22.08-16.27,47.81-19.47,72.92-22.11c5.54-0.58,11.59-1.22,19.93-1.55
		c37.7-1.49,63.4,5.6,70.22,7.59c0.94,0.27,1.54,0.46,2.56,0.76c19.23,5.81,46.33,15.8,82.29,34.08c0,0,48.77,35.97,52.46,87.63
		c0.51,4.17,0.89,8.68,1.03,13.49c0.25,8.33-0.22,15.88-1.03,22.48c-2.53,24.07-2.85,27.14-2.85,27.14c0,0.01-1.24,17.11,3.85,39.6
		c0.14,0.61,0.13,0.54,0.29,1.26c8.23,35.88,2.12,51.24,0.19,55.58c-0.34,0.77-0.53,1.35-0.83,1.78
		c-4.37,6.18-32.89,45.43-63.62,62.76c-2.39,1.35-3.44,4.23-2.5,6.8c6.28,17.17,11,33.49,14.36,50.15
		c4.4,21.75,6.89,41.78,6.75,70.45c-0.02,3.22-0.05,5.84-0.2,9.29c-0.71,16.06-3.31,28.96-5.6,37.82c-0.04,0.31-0.09,0.76-0.14,1.3
		c-0.09,0.94-0.26,2.85-0.12,4.7c0.24,3.25,1.37,5.6,2.12,6.23c0.49,0.42,1.83,0.93,1.88,0.94c0,0,0,0,0,0
		c0.05,0.01,0.09,0.02,0.12,0.03c7.7,1.69,20.52,7.3,30.61,25.57c2.04,3.7,7.24,4.01,9.61,0.52c3.68-5.44,8.48-11.37,11.62-10.81
		c1.33,0.24,2.69,0.1,3.82-0.64c2.79-1.83,7.23-4.42,8.26-3.18c1.47,1.77,2.38,2.56,5.59,8.62c0.22,0.42,0.49,0.8,0.81,1.16
		c1,1.13,3.42,4.89,2.37,13.99c-0.02,0.15-0.04,0.29-0.07,0.44c-0.51,2.72-5.85,30.65-9.93,35.61
		c-4.24,5.17-31.48,84.86-48.99,96.36c-0.36,0.24-0.69,0.49-1,0.79c-3.06,3.08-21.09,20.95-29.37,22.54
		c-0.49,0.09-0.99,0.09-1.48,0.03c-2.1-0.27-7.11-1.75-8.15-9.69c-0.37-2.86-2.91-4.93-5.79-4.87c-12.68,0.3-42.96,0.84-52.16-0.59
		c-0.1-0.02-0.19-0.03-0.29-0.05c-3.09-0.64-55.15-11.31-81.23-10.15c-0.35,0.02-0.69,0-1.03-0.05c-4.51-0.66-38.76-5.09-70.24,7.62
		c-1.73,0.7-3,2.2-3.4,4.02c-1.35,6.11-5.6,19.81-16.03,16.56c0,0-10.77-2.91-19.72-15.81c-0.95-1.36-2.42-2.25-4.07-2.41
		c-12.62-1.23-67.1-8.05-88.3-35.53c-0.11-0.14-0.21-0.29-0.31-0.44c-2.32-3.6-29.9-48.08-13.72-101.49
		c0.04-0.15,0.08-0.29,0.11-0.44c1.01-4.95,19.15-93.36,27.04-108.38c0.15-0.28,0.27-0.55,0.37-0.85
		c1.23-3.66,9.63-28.97,10.79-39.28c0.18-1.59-0.31-3.18-1.37-4.38c-19.83-22.49-42.62-56.28-72.1-103.11
		c-1.25-1.99-2.1-3.34-3.28-5.32c-21.31-35.87-28.5-73.5-28.91-78.58c-0.06-0.72,0.28-2.66-1.02-4.43
		c-0.98-1.35-2.18-3.08-3.17-4.78c-1.67-2.87-0.53-6.52,2.45-7.97c0.04-0.02,0.08-0.04,0.12-0.06c2.51-1.19,3.79-4.02,3.01-6.69
		c-0.94-3.24-1.64-6.56-0.58-6.68c0,0,3.66-0.63,7.09-0.81c3.09-0.16,5.49-2.75,5.36-5.85c-0.19-4.6-0.15-9.68,1.01-8.9
		c0,0,5.53,0.61,10.28,2.19c3.19,1.06,6.59-0.95,7.25-4.25c0.69-3.45,1.73-6.42,3.18-4.97c0,0,6.53,2.24,12.26,6.29
		c2.97,2.09,7.08,0.87,8.47-2.48c1.32-3.19,2.88-5.92,4.12-4.96c6.41,11.07,10.11,18.23,12.36,22.89c0.13,0.28,1.23,2.55,3.02,5.4
		c4.35,6.91,7.98,9.54,10,10.79c0.58,0.36,0.46,0.17,1.05,0.61c8.22,6.11,10.36,10.72,13.1,10.33c0.82-0.12,1.51-0.73,3.76-5.52
		c3.53-7.51,5.72-14.23,7.06-18.47c1.78-5.6,1.87-6.22,2.98-9.28c1.86-5.14,3.65-9.27,3.65-9.27s2.11-4.6,3.63-9.6
		c0.05-0.18,0.08-0.27,0.08-0.27c0.02,0.01-0.92,2.6-1.84,5.06c-0.82,2.16-1.27,3.27-1.26,3.27c0.01,0,1.9-3.5,3.1-8.33
		c0.84-3.35,0.56-4.21,1.73-8.96c0.21-0.84,0.48-1.9,0.77-3.47c0.26-1.42,0.39-2.59,0.65-4.87c0.29-2.57,0.27-2.7,0.56-5.28
		c0.12-1.03,0.27-2.24,0.48-3.81c0.51-3.69,0.74-4.59,1.29-7.63c0.66-3.67,1.13-6.62,1.43-8.71c0.17-1.17,0.26-1.87,0.32-2.38
		c0.02-0.16,0.07-0.65,0.15-1.31c0,0,0.05-0.36,0.1-0.74c0.42-2.88,1.73-9,1.73-9c0.5-2.34,0.32-1.54,1.31-6.23
		c0.55-2.58,0.83-3.9,1.17-5.45c0.49-2.24,0.87-3.92,1.34-5.87c0.76-3.09,1.47-5.56,2.04-7.49c0,0,8.94-30.06,18.15-38.37
		c0,0,0.02-0.01,0.03-0.03c0.33-0.29,2.34-2.11,2.41-2.03c0.15,0.16-7.55,7.51-7.4,7.66c0.25,0.26,23.11-22.17,25.12-24.43
		c1.43-1.61,2.78-3.2,2.78-3.2c0.63-0.75,1.26-1.52,2.43-2.94C502.44,273.5,506.92,270.19,514.21,264.82z"/>
</g>
<path class="st4" d="M572.96,465.81c-1.6-0.4-8.33-7.17-11.5-10.5L572.96,465.81z M572.96,465.81c2,0.5,28.5,2,50.5-5.5
	c11.33,6.83,37.9,19.9,53.5,17.5 M572.96,465.81c-3.2,8.4,1.33,44.17,4,61c6.4,36,23.33,50,31,52.5c16,2.4,35-19.33,42.5-30.5
	c15.2-22.8,24-56.83,26.5-71 M676.96,477.81l8.5-5.5"/>
<path class="st5" d="M707.96,621.81c12.17-6.5,37.5-20.5,41.5-24.5"/>
<path class="st3" d="M679.72,662.88c0,0-15.55,35.68-21.12,59.6c-8.84,37.95-8.23,70.89-5.88,93.9c-2.17,4.67-4.57,11-3.76,15
	c1.83,1.5,6.9,4.3,12.5,3.5c-0.24,9.62,1.62,12.89,3.71,13.78c1.79,0.76,4.61,0.14,4.62,0.19c0,0.03-1.3,0.14-2.56,0.23
	c1.16,0,2.55-0.09,4.08-0.42c2.95-0.63,5.2-1.83,6.65-2.78c1.83,3,6.3,9.1,9.5,9.5c3.17-1.83,9.7-5.9,10.5-7.5c1-2,1.5,10,8.5,11.5
	c1.68-0.63,4.31-1.87,6.87-4.24c2.04-1.89,3.34-3.84,4.13-5.26c3.4,6.38,9.76,9.41,14,8c5.19-1.72,9.12-10.71,4.5-19.5
	c17.55-33.69,24.01-46.67,24.93-49.23c0-0.01,0.02-0.05,0.04-0.11c1.36-3.77,1.71-4.61,2-5.5c0.34-1.05,0.73-2.58,0.89-4.57"/>
<ellipse class="st6" cx="737.96" cy="420.31" rx="35.5" ry="36"/>
<path class="st7" d="M641.46,626.31c-27.6,6.8-71.5-7.83-90-16c12,24.4,38,36.83,49.5,40C613.96,647.81,675.96,617.81,641.46,626.31
	z"/>
<ellipse class="st8" cx="527.96" cy="392.31" rx="35.5" ry="36"/>
<path class="st9" d="M817.96,516.81c0,20.56-15.79,37-35,37s-35-16.44-35-37c0-20.56,15.79-37,35-37S817.96,496.25,817.96,516.81z"
	/>
<path class="st9" d="M504.96,477.31c0,20.74-16.6,37.5-37,37.5s-37-16.76-37-37.5s16.6-37.5,37-37.5S504.96,456.57,504.96,477.31z"
	/>
<ellipse class="st10" cx="536.96" cy="377.31" rx="14.5" ry="15"/>
<ellipse class="st11" cx="730.96" cy="405.31" rx="14.5" ry="15"/>
<path class="st4" d="M416.68,476.31c30.09,41,60.19,82,90.28,123"/>
<path class="st12" d="M364.42,753.18l-28.45,36.18c16.14,10.89,32.29,21.78,48.43,32.67c1.72-9.99,3.43-19.99,5.15-29.98
	c-3.37-2.85-6.74-5.7-10.11-8.54c4.12-5.03,8.24-10.06,12.36-15.09c-2.04,0.77-4.09,1.53-6.13,2.3c0.66-0.7,1.58-1.73,2.55-3.06
	c1.02-1.39,1.66-2.5,2.55-4.09c1.04-1.84,2.27-4.04,3.63-6.55c-2.07,1.3-4.7,2.67-7.85,3.84c-2.34,0.87-4.25,1.35-5.29,1.53
	c6.45-8.22,6.13-13.16,5.17-14.6c-3.23,0.58-9.73,8.18-12.58,11.9c-2.87,0.6-2.69-5.4-2.24-8.47L364.42,753.18z"/>
<path class="st13" d="M390.02,897.26c15.4,6.2,27.21,4.75,32.87,3.57c31.2-6.55,45.12-41.04,48.45-49.31
	c3.59-8.89,5.2-16.81,6-22.47c0.02-0.85,0.16-1.91,0.77-2.17c1.99-0.86,7.17,7.56,10.72,12.51c4.15,5.78,10.65,11.29,23.66,22.33
	c9.18,7.79,21.84,17.91,37.98,29.1c12.59,0.75,21.74-1.54,27.86-3.84c6.46-2.43,9.81-4.97,17.74-7.37c8.25-2.5,15.45-3.02,20.3-3.06
	c28.58-0.25,60.34,8.86,60.34,8.86c20.61,6.4,30.72,12.7,57.05,17.52c2.45,0.45,4.48,0.78,5.83,1c1.6,0,3.9-0.15,6.54-0.9
	c3.3-0.94,5.55-2.36,7.67-3.72c1.88-1.21,4.37-3.04,6.96-5.68c8.23-13.67,17.76-28.11,28.82-42.97
	c6.92-9.29,13.84-17.94,20.65-25.98c0.61-0.73,1.36-1.46,2.27-2.13c4.61-3.35,10.16-2.56,11.97-2.22c3.22,1.4,7.4,3.91,9.3,8.35
	c1.39,3.26,1.07,6.42-4.77,22.47c-0.79,2.18-2.6,7.11-9.53,24.85c-2.15,5.51-3.11,7.93-3.74,9.53c-3.66,9.23-6.56,16.27-7.03,17.41
	c-11.49,27.72-24.8,43.36-24.8,43.36c-5.84,6.86-15.79,16.78-31.49,25.53c-0.9,0.1-3.2,0.24-5.28-1.19
	c-1.87-1.29-2.59-3.17-3.06-4.43c-1.07-2.8-0.32-3.87-1.19-5.45c-0.69-1.26-2.37-2.75-6.89-3.24c-19.89,0.65-35.41,0.41-43.83-0.17
	c-3.88-0.27-8.06-0.55-13.62-1.53c-3.4-0.6-4.8-1.02-10.04-2.04c0,0-4.82-0.95-11.57-2.04c-32.03-5.21-62.13-5.96-62.13-5.96
	c-19.96-0.5-30.22-0.7-43.85,2.34c-9.35,2.09-17.41,4.97-24.06,7.87c-1.94,11-7.11,19.04-12.94,19.57
	c-3.77,0.34-7.18-2.52-12.09-6.64c-5.33-4.48-8.81-9.12-10.91-12.35c-28.48-2.9-49.01-9.81-61.6-15.06
	c-8.94-3.72-15.41-7.24-21.62-13.11C396.35,917.65,391.9,904.7,390.02,897.26z"/>
<path class="st5" d="M823.96,797.31c1.67,5,1.9,20.4-10.5,42 M837.46,800.81c-1.5,10.67-6.3,34.2-13.5,43"/>
<path class="st5" d="M464.25,788.33c-5.6-1.6-7,2.33-7,4.5c-8.4,45.2,20.17,128.83,35.5,165c12,23.6,24.33,20.5,29,16
	c15.6-31.6-0.83-96.83-11-125.5c-18-58-32.17-66.5-37-63.5 M464.25,788.33c1.27,6.62,2.84,14.14,4.75,22.4
	c2.06,8.88,4.64,19.12,4.75,19.1C473.85,829.81,472.21,822.37,464.25,788.33z M464.25,788.33c0.33-1.17,2.7-3.5,9.5-3.5
	 M473.75,784.83c10.81,34.53,13.07,41.98,13,42c-0.08,0.02-3.28-9.79-5.8-17.84C478.09,799.86,475.7,791.72,473.75,784.83z"/>
<path class="st3" d="M368.2,341.95"/>
<path class="st3" d="M141.37,701.71"/>
<path class="st1" d="M-92.78,330.98"/>
<path class="st3" d="M426.28,330.79"/>
<path class="st3" d="M441.85,322.87"/>
<path class="st3" d="M416.19,369.6"/>
<path class="st3" d="M408.4,334.36"/>
<path class="st3" d="M423.38,346.11"/>
<path class="st5" d="M1225.94,759.21"/>
<path class="st5" d="M968.06,731.13"/>
<path class="st9" d="M429.6,450.36"/>
<path class="st13" d="M584.57,920.06"/>
<path class="st13" d="M340.49,1198.36"/>
<path class="st13" d="M403.55,965"/>
<path class="st13" d="M866.11,863.04"/>
<path class="st5" d="M805.06,810.91c-0.49,0.6-1.24,1.55-2.16,2.71c-8.96,11.28-16.21,21.29-18.64,24.81
	c-10.48,15.22-19.55,38.21-22.21,45.15"/>
<path class="st4" d="M427.3,816.06c0,0,15.31-21.28,29.95-23.23"/>
<path class="st3" d="M482.85,788.33"/>
<path class="st3" d="M817.43,710.87"/>
<g>
	<g>
		<path class="st8" d="M764.32,781.46c0.04,0,0.04-5,0-5C764.28,776.46,764.28,781.46,764.32,781.46L764.32,781.46z"/>
	</g>
</g>
<g>
	<g>
		<path class="st8" d="M764.32,781.46c0.17,0,0.34,0,0.51,0c0.01-0.07,0.01-0.14,0.01-0.22c0-0.17,0.01-0.34,0.01-0.52
			c0.01-0.59,0.01-1.18,0.01-1.77c0-0.59,0-1.18-0.01-1.77c0-0.07,0-0.73-0.02-0.73c-0.17,0-0.34,0-0.51,0
			c-0.01,0.07-0.01,0.14-0.01,0.22c0,0.17-0.01,0.34-0.01,0.52c-0.01,0.59-0.01,1.18-0.01,1.77c0,0.59,0,1.18,0.01,1.77
			C764.3,780.8,764.3,781.46,764.32,781.46L764.32,781.46z"/>
	</g>
</g>
<g>
	<g>
		<path class="st8" d="M765.28,776.3c-0.59-0.41-1.09-0.95-1.46-1.57c-0.18-0.31-0.32-0.63-0.43-0.97
			c-0.07-0.21-0.19-0.73-0.52-0.47c-0.36,0.29-0.26,0.96-0.26,1.34c-0.01,1.31-0.02,2.62,0.01,3.93c0,0.23,0.02,0.47,0.05,0.7
			c0.09,0.7,0.32,1.39,0.66,2.01c0.39,0.71,0.92,1.34,1.56,1.84c-0.02-0.02,0.02-0.82,0.02-0.73c0.01-0.59,0.01-1.18,0.01-1.77
			c0-0.59,0-1.18-0.01-1.77c0-0.13,0-0.26-0.01-0.39c0-0.11,0-0.23-0.01-0.34c-1.29-1-2.11-2.52-2.25-4.14c0,0.03,0,0.06,0.01,0.09
			c0-0.02,0-0.04,0-0.06c0,1.61,0,3.21,0,4.82c0-0.02,0-0.04,0-0.06c0,0.03,0,0.06-0.01,0.09c0.03-0.22,0.21-0.76,0.53-0.57
			c0.17,0.1,0.19,0.37,0.25,0.54c0.07,0.2,0.15,0.4,0.24,0.6c0.37,0.77,0.94,1.42,1.63,1.91c-0.02-0.01,0.02-0.83,0.02-0.73
			c0.01-0.59,0.01-1.18,0.01-1.77s0-1.18-0.01-1.77C765.3,776.93,765.35,776.35,765.28,776.3L765.28,776.3z"/>
	</g>
</g>
<path class="st3" d="M896.57,942.02"/>
<path class="st3" d="M481.26,787.38c4.93-0.75,12.11-1.28,20.55,0.11c7.26,1.19,13.11,3.39,17.28,5.34"/>
<g>
	<g>
		<path class="st14" d="M796.03,300.24c-2.9,0.58-2.99-3.83-3.2-5.65c-0.16-1.48-2.84-5.51-4.24-2.93c0,1.67,0,3.33,0,5
			c0.14-1.52,0.28-3.04,0.42-4.56c0.08-0.82,0.03-1.67,0.03-2.5c0-0.33-0.27-2.31-0.03-2.5c-11.77,9.13-22.45,19.6-31.82,31.18
			c-0.29,0.35-0.02,2.04-0.02,2.5c0,0.26,0.22,2.39,0.02,2.5c13.54-7.47,26.29-16.33,37.99-26.43c3.3-2.85,6.52-5.8,9.65-8.84
			c0.27-0.26,0.03-2.11,0.03-2.5c0-0.59,0-1.18-0.01-1.77c0-0.11-0.08-0.67-0.02-0.73c-11.09,10.77-23.29,20.39-36.37,28.63
			c-3.69,2.33-7.45,4.54-11.27,6.65c0,1.67,0,3.33,0,5c9.37-11.58,20.05-22.05,31.82-31.18c0-1.67,0-3.33,0-5
			c-0.14,1.52-0.28,3.04-0.42,4.56c-0.08,0.82-0.03,1.67-0.03,2.5c0,0.59,0,1.18,0.01,1.77c0,0.16,0.09,0.6,0.02,0.73
			c0.59-1.09,1.64-0.88,2.49-0.19c1.1,0.88,1.66,2.14,1.77,3.52c0.14,1.81,0.48,5.8,3.18,5.26
			C796.39,305.17,795.74,300.3,796.03,300.24L796.03,300.24z"/>
	</g>
</g>
<g>
	<g>
		<path class="st14" d="M785.26,305.52c3.43-1.24,6.13-2.8,8.86-5.24c2.34-2.09,2.93-6.46,1.17-9.09
			c-4.12-6.16-9.93-4.45-15.53-1.63c-5.66,2.85-11.04,6.17-16.2,9.83c3.42,3.42,6.84,6.84,10.26,10.26
			c2.55-4.87,7-10.16,12.77-11.01c-2.43-0.64-4.86-1.29-7.3-1.93c-0.44-1.57-0.56-1.67-0.37-0.29c0.03,0.83-0.12,1.63-0.44,2.4
			c-0.49,1.28-1.56,2.17-2.23,3.32c-2.12,3.65-2.31,8.09,0.45,11.47c6.02,7.38,16.15-0.14,22.53-3.18
			c-3.03-3.93-6.06-7.85-9.09-11.78c-4.72,3.89-8.56,8.67-11.44,14.06c-2.04,3.82-0.72,7.83,2.69,10.26c3.07,2.2,6.93,2,10.2,0.24
			c1.97-1.06,4.98-4.67,7.23-4.91c-1.77-4.27-3.54-8.54-5.3-12.8c-4.06,3.62-8.12,7.24-12.18,10.86c-6.61,5.9,1.8,15.52,9.09,11.78
			c12.39-6.36,13.51-21.56,7.11-32.62c-4.83-8.35-17.8-0.81-12.95,7.57c2.47,4.27,3.29,9.52-1.73,12.1
			c3.03,3.93,6.06,7.85,9.09,11.78c4.06-3.62,8.12-7.24,12.18-10.86c4.6-4.1,1.17-13.47-5.3-12.8c-3.14,0.33-5.87,0.98-8.62,2.62
			c-2.35,1.41-4.27,3.43-6.77,4.6c1.26-0.34,2.52-0.68,3.79-1.02c-0.4,0.03-0.79,0.07-1.19,0.1c1.26,0.34,2.52,0.68,3.79,1.02
			c-0.29-0.2-0.57-0.41-0.86-0.61c0.9,3.42,1.79,6.84,2.69,10.26c2.34-4.38,5.27-7.87,9.09-11.03c6.98-5.76-1.91-15.2-9.09-11.78
			c-3.26,1.55-6.77,3.76-10.25,4.75c1.93,0.25,3.85,0.5,5.78,0.76c0.47,0.48,0.94,0.97,1.41,1.45c0.34,1.26,0.68,2.52,1.02,3.79
			c-0.01-0.33-0.02-0.66-0.02-0.99c-0.34,1.26-0.68,2.52-1.02,3.79c2.38-5.03,5.34-8.63,5.33-14.6c-0.01-5.49-2.83-12.52-9.33-12.52
			c-9.92,0-19.5,10.08-23.72,18.17c-3.2,6.12,3.72,14.9,10.26,10.26c3.05-2.16,6.17-4.22,9.39-6.11c1.49-0.87,2.99-1.71,4.52-2.52
			c0.76-0.41,1.53-0.81,2.3-1.19c1.72-0.74,2.09-0.95,1.09-0.63c-2.16-1.24-4.32-2.48-6.48-3.71c0.13,0.2,0.26,0.39,0.39,0.59
			c0.39-3.03,0.78-6.06,1.17-9.09c-0.63,0.65-1.38,1.11-2.24,1.38C772.26,294.31,776.15,308.81,785.26,305.52L785.26,305.52z"/>
	</g>
</g>
<g>
	<g>
		<path class="st14" d="M484.92,303.7c3.71-3.42,4.82-8.61,8.67-11.9c2.22-1.89,2.7-2.55,4.32-0.6c1.96,2.35,4.58,4.39,6.77,6.54
			c8.97,8.78,17.67,17.84,26.13,27.11c6.52,7.15,17.1-3.48,10.61-10.61c-10.83-11.87-21.86-24.32-34.11-34.76
			c-6.18-5.27-13.35-5.93-20.24-1.5c-2.86,1.84-5.29,4.21-7.37,6.87c-1.93,2.47-3.16,6.17-5.39,8.23
			C467.21,299.66,477.83,310.25,484.92,303.7L484.92,303.7z"/>
	</g>
</g>
<g>
	<g>
		<path class="st14" d="M490.29,285.03c1.7,2.72,3.4,5.45,5.1,8.17c2.08,3.33,6.79,4.93,10.26,2.69c3.33-2.15,4.91-6.7,2.69-10.26
			c-1.7-2.72-3.4-5.45-5.1-8.17c-2.08-3.33-6.79-4.93-10.26-2.69C489.65,276.92,488.07,281.47,490.29,285.03L490.29,285.03z"/>
	</g>
</g>
<g>
	<g>
		<path class="st14" d="M478.36,303.05c9.65,0,9.67-15,0-15C468.71,288.05,468.69,303.05,478.36,303.05L478.36,303.05z"/>
	</g>
</g>
<path d="M257.46,76.31c3.96,15.12,9.79,32.34,18.48,50.58c19.02,39.91,43.85,68.08,62.88,86.08c-2.13-12.5-3.75-30.04-1.33-50.71
	c2.65-22.7,9.18-40.75,14.68-52.9c-10.53-6.01-22.94-12.18-37.2-17.7C293.45,83.34,273.72,78.82,257.46,76.31z"/>
<path d="M224.57,209.26"/>
<path class="st15" d="M914.26,167.43c0,0,72.81-29.52,111.02-20.36c-5.09,13.26-12.03,28.05-21.61,43.37
	c-25.67,41.04-58.08,66.34-80.54,80.72c0.34-13.91,0.1-29.04-1.05-45.21C920.55,204.4,917.68,184.79,914.26,167.43z"/>
<path class="st13" d="M128.32,493.17c56.51-6.76,92.68-5.36,92.68-5.36c22.07,0.86,94.98-4.26,95.23-2.04
	c0.26,1.36,0.51,2.72,0.77,4.09c0.37,0.61,0.73,1.22,1.1,1.83c0.88,3.26,2.15,7.91,3.75,13.49c1.01,3.53,2.46,8.57,3.57,12.13
	c1.74,5.53,4.53,13.34,9.06,22.85c1.22,1.98,2.24,3.79,3.07,5.36c2.68,5.05,1.72,4.34,3.31,6.89c0.45,0.72,1.08,1.67,0.82,1.95
	c-0.24,0.26-1.09-0.22-2.73-0.93c-1.09-0.47-2.22-0.83-3.32-1.28c-5.1-2.09-13.79-3.57-13.79-3.57c-5.14-0.88-7-2.04-25.02-6.64
	c-41.49-10.58-141.99-36.57-148.85-38.55c-0.38-0.11-2.42-0.71-5.21-1.37c-0.44-0.1-1.86-0.44-4.23-0.92
	c-7.27-1.48-7.56-1.11-9.96-2.04c-0.96-0.38-2.1-0.9-4.09-1.53c-0.51-0.16-0.94-0.29-2.73-0.81c-2.43-0.72-3.65-1.08-3.65-1.23
	C118.07,494.88,122.06,493.92,128.32,493.17z"/>
<path class="st13" d="M195.47,556.66"/>
<path class="st13" d="M354.79,575.77c5.51,8.65,11.17,17.38,16.98,26.17c6.99,10.58,13.97,20.92,20.94,31.02
	c-10.4,10.27-20.79,20.54-31.19,30.81c18.18,10.03,36.37,20.05,54.55,30.08c-6.52,23.07-13.05,46.14-19.57,69.21l-4.94,4.85
	l-4.02,1.51c0,0,4.77-6.64,5.79-9.4l2.49-4.49c0,0-4.32,3.55-13.3,6.04c0,0,7.45-9.83,4.17-14.28c0,0-4.06-0.3-13.06,11.94
	c0,0-2.74,0.23-1.21-8.57l-6.38,1.28l21.32-27.83c-35.53-13.91-71.06-27.83-106.6-41.74C305.43,646.83,330.11,611.3,354.79,575.77z"
	/>
<path class="st13" d="M326.7,745.94"/>
<path class="st13" d="M470.87,303.89c-63.03-44.56-94.95-66.28-95.77-65.17c-0.07,0.1,0.1,0.38,0.53,0.84
	c-0.66-0.16-3.71-0.9-4.16-0.01c-0.38,0.74,1.2,2.26,2.55,3.57c1.95,1.89,3.39,2.75,4.94,3.91c2.55,1.92,3.82,3.47,5.11,4.77
	c5.85,5.9,23.22,17.91,31.83,24c12.77,9.04,10.41,8.01,20.43,14.98c11.79,8.21,21.81,14.32,28.54,18.27"/>
<path class="st13" d="M405.04,642.53c0.12-0.11,0.97,0.69,1.14,0.84c6.1,5.64,27.77,17.08,27.77,17.08
	c6.99,3.69,17.1,9.41,30.3,18.16c-3,2.99-6.93,6.3-11.92,9.26c-12.7,7.53-25.19,8.62-32.05,8.65c0.23-0.81,0.58-2.06,1.02-3.57
	c1.24-4.28,1.43-4.79,2.06-7.11c0.64-2.35,1-3.85,1.51-6.02c0,0,0.28-1.19,0.77-3.74c0.22-1.16,0.49-4.71,0.38-3.53l0,0c0,0,0,0,0,0
	s0,0,0,0c-0.41-2.2-0.57-3.11-0.55-3.11c0.02,0,0.24,0.88,0.15,0.91c-0.1,0.03-0.51-1.01-0.94-1.91c-0.44-0.92-1.14-2.16-2.25-3.57
	c-1.71-1.99-3.85-4.53-6.28-7.54c-1.91-2.36-3.16-3.98-5.11-6.51C407.36,646.06,404.81,642.74,405.04,642.53z"/>
<path class="st13" d="M810.79,316.49c-3.94,1.41-7.88,2.83-11.82,4.24c0.96,2.49,2.24,5.13,3.99,7.76c0.25,0.38,0.5,0.74,0.76,1.1
	c0.05,0.06,0.11,0.11,0.18,0.17c2.72,2.4,8.88-0.35,12-1.79c5.76-2.65,10.66-4.73,20.94-9.7c0.15-0.07,0.45-0.22,0.46-0.22
	c9.37-4.54,18.48-9.21,24.31-12.29c16.49-8.72,25.35-13.41,24.89-14.55c-0.43-1.08-9.23,0.65-47.73,13.79"/>
<path class="st5" d="M423.7,671.16c2.89,2.75,5.77,5.49,8.66,8.24c3.99,4.26,8.71,8.79,14.26,13.38
	c11.31,9.36,22.85,16.32,32.83,21.43"/>
<path class="st3" d="M334.7,577.77"/>
<path class="st4" d="M353.51,577.17"/>
<path class="st4" d="M350.53,575.47"/>
<path class="st16" d="M576.15,503.38c0.59,11.03,2.22,20.1,3.74,26.72c2.33,10.11,4.89,16.47,5.56,18.11
	c3.69,9,7.34,14.29,8.9,16.44c3.66,5.03,6.48,7.45,8.17,8.77c2.61,2.03,5.06,3.36,6.88,4.22c3.45-0.46,8.37-1.49,13.72-4.05
	c4.25-2.03,12.13-6.62,23.57-23.74c5.38-8.05,12.23-19.89,17.85-35.53c-5-5.53-15.23-15.26-31.21-20.62
	c-27.8-9.33-51.91,1.62-57.45,4.32"/>
<path class="st17" d="M575.89,498.02c5.86-2.89,16.01-6.98,29.27-7.82c14.03-0.88,24.59,2.32,27.83,3.38
	c16.26,5.33,26.62,15.24,31.56,20.74c-0.76,2.11-1.58,4.26-2.47,6.45c-2.04,5.02-4.22,9.66-6.42,13.92
	c-5.84-3.78-13.77-7.94-23.68-10.74c-23.49-6.64-43.73-1.55-53.02,1.48c-0.32-1.34-0.61-2.76-0.85-4.26
	c-0.08-0.49-0.15-0.97-0.21-1.45c-0.01-0.05-0.06-0.43-0.17-1.19c-0.46-3.28-0.69-4.93-0.8-5.77c-0.2-1.68-0.31-2.88-0.44-4.42
	C576.28,505.85,576.04,502.37,575.89,498.02z"/>
<g>
	<g>
		<path class="st8" d="M575.55,505.01c2.32-2.61,5.18-4.77,8.46-6.02c3.4-1.3,7.09-1.95,10.65-2.62c4.68-0.88,9.46-1.57,14.23-1.71
			c11.69-0.35,23.33,2,34.27,5.99c7.91,2.89,14.61,7.83,19.23,14.93c1.75,2.69,6.08,0.18,4.32-2.52
			c-4.45-6.83-10.67-12.29-18.14-15.59c-5.46-2.4-11.3-4.21-17.13-5.51c-7.26-1.61-14.79-2.46-22.22-2.31
			c-4.43,0.09-8.88,0.71-13.25,1.43c-4.26,0.71-8.69,1.44-12.77,2.89c-4.3,1.53-8.15,4.09-11.19,7.5
			C569.88,503.87,573.41,507.42,575.55,505.01L575.55,505.01z"/>
	</g>
</g>
<path class="st18" d="M574.79,468.4c4.77,0.35,9.98,0.47,15.57,0.21c12.89-0.58,23.99-2.98,32.81-5.66
	c4.52,2.74,9.7,5.51,15.54,8.03c13.25,5.73,25.51,8.34,35.22,9.54c-0.39,1.83-0.97,4.51-1.7,7.74c0,0-5.24,23.15-6.94,22.81
	c-0.14-0.03-0.16-0.3-0.97-1.32c-0.23-0.29-0.42-0.51-0.59-0.7c-0.79-0.9-2.3-2.59-2.57-2.87c-6.02-6.37-17.23-10.51-17.23-10.51
	c-1.66-0.61-7.59-2.73-20.02-4.01c-29.62-3.05-45.22,3.87-46.62,5.28c-0.11,0.12-0.91,0.98-1.4,0.77c-0.4-0.17-0.42-0.94-0.43-1.23
	c-0.16-5.1-0.82-10.18-1.02-15.28c-0.04-1.1-0.13-2.93-0.13-5.53c0-1.23,0.02-2.25,0.04-2.94"/>
<path class="st19" d="M615.41,432.89c3.54,0.15,5.91,0.71,7.46,1.22c0.52,0.17,1.6,0.55,3.06,0.51c1.61-0.05,2.78-0.58,3.4-0.85
	c1.5-0.65,3.78-1.44,7.15-2.04c-0.58,1.59-1.6,3.82-3.44,6.07c-2.65,3.26-5.67,4.96-7.45,5.79c-1.1-0.56-2.31-1.29-3.53-2.24
	C618.44,438.52,616.46,435.13,615.41,432.89z"/>
</svg>
